<svg width="189" height="100" viewBox="0 0 189 100" fill="none" xmlns="http://www.w3.org/2000/svg">
<path d="M157.001 0H120V100H157C162.523 100 167 95.5229 167 90V80H140V60H167V40H140V20H167V10C167 4.47715 162.524 0 157.001 0Z" fill="#1262E3"/>
<path d="M167 20H179C184.523 20 189 24.4772 189 30V40H167V20Z" fill="#1262E3"/>
<path d="M167 60H189V70C189 75.5228 184.523 80 179 80H167V60Z" fill="#1262E3"/>
<path d="M42 0H11C4.92487 0 0 4.92487 0 11V89C0 95.0751 4.92487 100 11 100H22V20H42V0Z" fill="#E33F12"/>
<path d="M62 0H93C99.0751 0 104 4.92487 104 11V89C104 95.0751 99.0751 100 93 100H82V20H62V0Z" fill="#E33F12"/>
<rect x="42" y="20" width="20" height="80" fill="#E33F12"/>
</svg>
