<svg
  width="104"
  height="104"
  viewBox="0 0 104 104"
  fill="currentColor"
  xmlns="http://www.w3.org/2000/svg"
>
  <path
    d="M52.0005 26.0005C52.0005 29.4149 51.328 32.7958 50.0214 35.9503C48.7147 39.1047 46.7996 41.9709 44.3853 44.3853C41.9709 46.7996 39.1047 48.7147 35.9503 50.0214C32.7958 51.328 29.4149 52.0005 26.0005 52.0005C22.5861 52.0005 19.2052 51.328 16.0507 50.0214C12.8963 48.7147 10.03 46.7996 7.61572 44.3853C5.2014 41.9709 3.28625 39.1047 1.97963 35.9503C0.673005 32.7958 0.000495978 29.4149 0.000496276 26.0005L16.273 26.0005C16.273 27.2779 16.5246 28.5429 17.0134 29.7231C17.5023 30.9033 18.2188 31.9756 19.1221 32.8789C20.0254 33.7822 21.0977 34.4987 22.2779 34.9876C23.4581 35.4764 24.7231 35.728 26.0005 35.728C27.2779 35.728 28.5429 35.4764 29.7231 34.9876C30.9033 34.4987 31.9756 33.7822 32.8789 32.8789C33.7822 31.9756 34.4987 30.9033 34.9876 29.7231C35.4764 28.5429 35.728 27.2779 35.728 26.0005H52.0005Z"
  ></path>
  <path
    d="M77.9995 52.0005C74.5851 52.0005 71.2042 51.328 68.0497 50.0214C64.8953 48.7147 62.0291 46.7996 59.6147 44.3853C57.2004 41.9709 55.2853 39.1047 53.9786 35.9503C52.672 32.7958 52.0005 29.4149 52.0005 26.0005C52.0005 22.5861 52.672 19.2052 53.9787 16.0507C55.2853 12.8963 57.2004 10.03 59.6147 7.61572C62.0291 5.20139 64.8953 3.28625 68.0498 1.97963C71.2042 0.673004 74.5852 0.000494692 77.9995 0.00049514V16.273C76.7221 16.273 75.4572 16.5246 74.277 17.0134C73.0968 17.5023 72.0244 18.2188 71.1211 19.1221C70.2178 20.0254 69.5013 21.0977 69.0125 22.2779C68.5236 23.4581 68.272 24.7231 68.272 26.0005C68.272 27.2779 68.5236 28.5429 69.0125 29.7231C69.5013 30.9033 70.2178 31.9756 71.1211 32.8789C72.0244 33.7822 73.0968 34.4987 74.277 34.9876C75.4572 35.4764 76.7221 35.728 77.9995 35.728L77.9995 52.0005Z"
  ></path>
  <path
    d="M51.9995 77.9995C51.9995 74.5851 52.672 71.2042 53.9787 68.0497C55.2853 64.8953 57.2004 62.0291 59.6147 59.6147C62.0291 57.2004 64.8953 55.2853 68.0498 53.9786C71.2042 52.672 74.5851 52.0005 77.9995 52.0005C81.4139 52.0005 84.7948 52.672 87.9493 53.9786C91.1038 55.2853 93.97 57.2004 96.3843 59.6147C98.7986 62.0291 100.714 64.8953 102.02 68.0498C103.327 71.2042 104 74.5852 104 77.9995H87.7271C87.7271 76.7221 87.4754 75.4572 86.9866 74.277C86.4977 73.0968 85.7812 72.0244 84.8779 71.1211C83.9746 70.2178 82.9023 69.5013 81.7221 69.0125C80.5419 68.5236 79.277 68.272 77.9995 68.272C76.7221 68.272 75.4572 68.5236 74.277 69.0125C73.0968 69.5013 72.0244 70.2178 71.1211 71.1211C70.2178 72.0244 69.5013 73.0968 69.0125 74.277C68.5236 75.4572 68.272 76.7221 68.272 77.9995H51.9995Z"
  ></path>
  <path
    d="M26.0005 52.0005C29.4149 52.0005 32.7958 52.672 35.9503 53.9787C39.1047 55.2853 41.971 57.2004 44.3853 59.6147C46.7996 62.0291 48.7147 64.8953 50.0214 68.0498C51.328 71.2042 51.9995 74.5851 51.9995 77.9995C51.9995 81.4139 51.328 84.7948 50.0214 87.9493C48.7147 91.1038 46.7996 93.97 44.3853 96.3843C41.9709 98.7986 39.1047 100.714 35.9503 102.02C32.7958 103.327 29.4149 104 26.0005 104L26.0005 87.7271C27.2779 87.7271 28.5429 87.4754 29.7231 86.9866C30.9033 86.4977 31.9756 85.7812 32.8789 84.8779C33.7822 83.9746 34.4987 82.9023 34.9876 81.7221C35.4764 80.5419 35.728 79.277 35.728 77.9995C35.728 76.7221 35.4764 75.4572 34.9876 74.277C34.4987 73.0968 33.7822 72.0244 32.8789 71.1211C31.9756 70.2178 30.9033 69.5013 29.7231 69.0125C28.5429 68.5236 27.2779 68.272 26.0005 68.272L26.0005 52.0005Z"
  ></path>
  <path
    d="M52.0005 2.27299e-06C52.0005 3.41437 51.328 6.79531 50.0214 9.94977C48.7147 13.1042 46.7996 15.9705 44.3853 18.3848C41.9709 20.7991 39.1047 22.7142 35.9503 24.0209C32.7958 25.3275 29.4149 26 26.0005 26C22.5861 26 19.2052 25.3275 16.0507 24.0209C12.8963 22.7142 10.03 20.7991 7.61572 18.3848C5.2014 15.9705 3.28625 13.1042 1.97963 9.94977C0.673005 6.7953 0.000495978 3.41437 0.000496276 0L16.273 1.42259e-06C16.273 1.27744 16.5246 2.54237 17.0134 3.72257C17.5023 4.90276 18.2188 5.97512 19.1221 6.8784C20.0254 7.78169 21.0977 8.49821 22.2779 8.98707C23.4581 9.47592 24.7231 9.72753 26.0005 9.72753C27.2779 9.72753 28.5429 9.47592 29.7231 8.98707C30.9033 8.49821 31.9756 7.78169 32.8789 6.8784C33.7822 5.97512 34.4987 4.90276 34.9876 3.72257C35.4764 2.54237 35.728 1.27744 35.728 2.27299e-06H52.0005Z"
  ></path>
  <path
    d="M104 52.0005C100.586 52.0005 97.2047 51.328 94.0502 50.0214C90.8958 48.7147 88.0295 46.7996 85.6152 44.3853C83.2009 41.9709 81.2858 39.1047 79.9791 35.9503C78.6725 32.7958 78 29.4149 78 26.0005C78 22.5861 78.6725 19.2052 79.9791 16.0507C81.2858 12.8963 83.2009 10.03 85.6152 7.61572C88.0296 5.20139 90.8958 3.28625 94.0502 1.97963C97.2047 0.673004 100.586 0.000494692 104 0.00049514V16.273C102.723 16.273 101.458 16.5246 100.277 17.0134C99.0972 17.5023 98.0249 18.2188 97.1216 19.1221C96.2183 20.0254 95.5018 21.0977 95.0129 22.2779C94.5241 23.4581 94.2725 24.7231 94.2725 26.0005C94.2725 27.2779 94.5241 28.5429 95.0129 29.7231C95.5018 30.9033 96.2183 31.9756 97.1216 32.8789C98.0249 33.7822 99.0972 34.4987 100.277 34.9876C101.458 35.4764 102.723 35.728 104 35.728L104 52.0005Z"
  ></path>
  <path
    d="M51.9995 104C51.9995 100.586 52.672 97.2047 53.9787 94.0502C55.2853 90.8958 57.2004 88.0295 59.6147 85.6152C62.0291 83.2009 64.8953 81.2858 68.0498 79.9791C71.2042 78.6725 74.5852 78 77.9995 78C81.4139 78 84.7948 78.6725 87.9493 79.9791C91.1038 81.2858 93.97 83.2009 96.3843 85.6152C98.7986 88.0296 100.714 90.8958 102.02 94.0502C103.327 97.2047 104 100.586 104 104H87.7271C87.7271 102.723 87.4754 101.458 86.9866 100.277C86.4977 99.0972 85.7812 98.0249 84.8779 97.1216C83.9746 96.2183 82.9023 95.5018 81.7221 95.0129C80.5419 94.5241 79.277 94.2725 77.9995 94.2725C76.7221 94.2725 75.4572 94.5241 74.277 95.0129C73.0968 95.5018 72.0244 96.2183 71.1211 97.1216C70.2178 98.0249 69.5013 99.0972 69.0125 100.277C68.5236 101.458 68.272 102.723 68.272 104H51.9995Z"
  ></path>
  <path
    d="M9.09197e-06 51.9995C3.41438 51.9995 6.79531 52.672 9.94978 53.9787C13.1042 55.2853 15.9705 57.2004 18.3848 59.6147C20.7991 62.0291 22.7143 64.8953 24.0209 68.0498C25.3275 71.2042 26 74.5852 26 77.9995C26 81.4139 25.3275 84.7948 24.0209 87.9493C22.7142 91.1038 20.7991 93.97 18.3848 96.3843C15.9705 98.7986 13.1042 100.714 9.94977 102.02C6.7953 103.327 3.41437 104 0 104L3.55646e-06 87.7271C1.27744 87.7271 2.54237 87.4754 3.72257 86.9866C4.90277 86.4977 5.97512 85.7812 6.87841 84.8779C7.78169 83.9746 8.49821 82.9023 8.98707 81.7221C9.47592 80.5419 9.72753 79.277 9.72753 77.9995C9.72753 76.7221 9.47592 75.4572 8.98707 74.277C8.49822 73.0968 7.78169 72.0244 6.87841 71.1211C5.97512 70.2178 4.90277 69.5013 3.72257 69.0125C2.54237 68.5236 1.27744 68.272 6.95809e-06 68.272L9.09197e-06 51.9995Z"
  ></path>
</svg>
